<mxfile host="app.diagrams.net" modified="2024-03-24T11:22:55.695Z" agent="Mozilla/5.0 (Macintosh; Intel Mac OS X 10.15; rv:124.0) Gecko/20100101 Firefox/124.0" etag="WHbtK3sawkDjMQMr7jL_" version="24.1.0" type="github">
  <diagram name="Page-1" id="wL86bnL1uPxfqyYp0sqk">
    <mxGraphModel dx="1434" dy="695" grid="1" gridSize="10" guides="1" tooltips="1" connect="1" arrows="1" fold="1" page="1" pageScale="1" pageWidth="850" pageHeight="1100" math="0" shadow="0">
      <root>
        <mxCell id="0" />
        <mxCell id="1" parent="0" />
        <mxCell id="G2IPlSxlMlCNfW8gDpsO-1" value="Start" style="whiteSpace=wrap;strokeWidth=2;fillColor=#dae8fc;strokeColor=#6c8ebf;gradientColor=#7ea6e0;" vertex="1" parent="1">
          <mxGeometry x="362" y="20" width="52" height="35" as="geometry" />
        </mxCell>
        <mxCell id="G2IPlSxlMlCNfW8gDpsO-2" value="Define_Research_Question_or_Objective" style="whiteSpace=wrap;strokeWidth=2;fillColor=#dae8fc;strokeColor=#6c8ebf;gradientColor=#7ea6e0;" vertex="1" parent="1">
          <mxGeometry x="233" y="105" width="308" height="35" as="geometry" />
        </mxCell>
        <mxCell id="G2IPlSxlMlCNfW8gDpsO-3" value="Develop_Inclusion_and_Exclusion_Criteria" style="whiteSpace=wrap;strokeWidth=2;fillColor=#dae8fc;strokeColor=#6c8ebf;gradientColor=#7ea6e0;" vertex="1" parent="1">
          <mxGeometry x="229" y="190" width="318" height="35" as="geometry" />
        </mxCell>
        <mxCell id="G2IPlSxlMlCNfW8gDpsO-4" value="Conduct_Literature_Search" style="whiteSpace=wrap;strokeWidth=2;fillColor=#dae8fc;strokeColor=#6c8ebf;gradientColor=#7ea6e0;" vertex="1" parent="1">
          <mxGeometry x="352" y="295" width="213" height="35" as="geometry" />
        </mxCell>
        <mxCell id="G2IPlSxlMlCNfW8gDpsO-5" value="Screen_and_Select_Studies" style="whiteSpace=wrap;strokeWidth=2;fillColor=#dae8fc;strokeColor=#6c8ebf;gradientColor=#7ea6e0;" vertex="1" parent="1">
          <mxGeometry x="26" y="485" width="212" height="35" as="geometry" />
        </mxCell>
        <mxCell id="G2IPlSxlMlCNfW8gDpsO-6" value="Document_Search_Strategy" style="whiteSpace=wrap;strokeWidth=2;fillColor=#dae8fc;strokeColor=#6c8ebf;gradientColor=#7ea6e0;" vertex="1" parent="1">
          <mxGeometry x="429" y="400" width="213" height="35" as="geometry" />
        </mxCell>
        <mxCell id="G2IPlSxlMlCNfW8gDpsO-7" value="Search_Multiple_Databases" style="whiteSpace=wrap;strokeWidth=2;fillColor=#dae8fc;strokeColor=#6c8ebf;gradientColor=#7ea6e0;" vertex="1" parent="1">
          <mxGeometry x="168" y="400" width="212" height="35" as="geometry" />
        </mxCell>
        <mxCell id="G2IPlSxlMlCNfW8gDpsO-8" value="Compile_Search_Results" style="whiteSpace=wrap;strokeWidth=2;fillColor=#dae8fc;strokeColor=#6c8ebf;gradientColor=#7ea6e0;" vertex="1" parent="1">
          <mxGeometry x="441" y="485" width="190" height="35" as="geometry" />
        </mxCell>
        <mxCell id="G2IPlSxlMlCNfW8gDpsO-9" value="Screen_Full_Texts_of_Potentially_Relevant_Studies" style="whiteSpace=wrap;strokeWidth=2;fillColor=#dae8fc;strokeColor=#6c8ebf;gradientColor=#7ea6e0;" vertex="1" parent="1">
          <mxGeometry x="344" y="570" width="384" height="35" as="geometry" />
        </mxCell>
        <mxCell id="G2IPlSxlMlCNfW8gDpsO-10" value="Review_Titles_and_Abstracts" style="whiteSpace=wrap;strokeWidth=2;fillColor=#dae8fc;strokeColor=#6c8ebf;gradientColor=#7ea6e0;" vertex="1" parent="1">
          <mxGeometry x="20" y="570" width="225" height="35" as="geometry" />
        </mxCell>
        <mxCell id="G2IPlSxlMlCNfW8gDpsO-11" value="Data_Extraction" style="whiteSpace=wrap;strokeWidth=2;fillColor=#dae8fc;strokeColor=#6c8ebf;gradientColor=#7ea6e0;" vertex="1" parent="1">
          <mxGeometry x="322" y="655" width="132" height="35" as="geometry" />
        </mxCell>
        <mxCell id="G2IPlSxlMlCNfW8gDpsO-12" value="Quality_Assessment" style="whiteSpace=wrap;strokeWidth=2;fillColor=#dae8fc;strokeColor=#6c8ebf;gradientColor=#7ea6e0;" vertex="1" parent="1">
          <mxGeometry x="130" y="760" width="158" height="35" as="geometry" />
        </mxCell>
        <mxCell id="G2IPlSxlMlCNfW8gDpsO-13" value="Is_study_of_sufficient_quality?" style="whiteSpace=wrap;strokeWidth=2;fillColor=#dae8fc;strokeColor=#6c8ebf;gradientColor=#7ea6e0;" vertex="1" parent="1">
          <mxGeometry x="90" y="845" width="238" height="35" as="geometry" />
        </mxCell>
        <mxCell id="G2IPlSxlMlCNfW8gDpsO-14" value="Data_Synthesis" style="whiteSpace=wrap;strokeWidth=2;fillColor=#dae8fc;strokeColor=#6c8ebf;gradientColor=#7ea6e0;" vertex="1" parent="1">
          <mxGeometry x="126" y="950" width="124" height="35" as="geometry" />
        </mxCell>
        <mxCell id="G2IPlSxlMlCNfW8gDpsO-15" value="Exclude_Study" style="whiteSpace=wrap;strokeWidth=2;fillColor=#dae8fc;strokeColor=#6c8ebf;gradientColor=#7ea6e0;" vertex="1" parent="1">
          <mxGeometry x="312" y="950" width="121" height="35" as="geometry" />
        </mxCell>
        <mxCell id="G2IPlSxlMlCNfW8gDpsO-16" value="if_applicable" style="rounded=1;absoluteArcSize=1;arcSize=14;whiteSpace=wrap;strokeWidth=2;fillColor=#dae8fc;strokeColor=#6c8ebf;gradientColor=#7ea6e0;" vertex="1" parent="1">
          <mxGeometry x="133" y="1035" width="110" height="35" as="geometry" />
        </mxCell>
        <mxCell id="G2IPlSxlMlCNfW8gDpsO-17" value="Interpretation_and_Conclusion" style="whiteSpace=wrap;strokeWidth=2;fillColor=#dae8fc;strokeColor=#6c8ebf;gradientColor=#7ea6e0;" vertex="1" parent="1">
          <mxGeometry x="215" y="1120" width="238" height="35" as="geometry" />
        </mxCell>
        <mxCell id="G2IPlSxlMlCNfW8gDpsO-18" value="Write_the_Review" style="whiteSpace=wrap;strokeWidth=2;fillColor=#dae8fc;strokeColor=#6c8ebf;gradientColor=#7ea6e0;" vertex="1" parent="1">
          <mxGeometry x="261" y="1205" width="147" height="35" as="geometry" />
        </mxCell>
        <mxCell id="G2IPlSxlMlCNfW8gDpsO-19" value="Peer_Review_and_Revision" style="whiteSpace=wrap;strokeWidth=2;fillColor=#dae8fc;strokeColor=#6c8ebf;gradientColor=#7ea6e0;" vertex="1" parent="1">
          <mxGeometry x="230" y="1290" width="209" height="35" as="geometry" />
        </mxCell>
        <mxCell id="G2IPlSxlMlCNfW8gDpsO-20" value="Publication_and_Dissemination" style="whiteSpace=wrap;strokeWidth=2;fillColor=#dae8fc;strokeColor=#6c8ebf;gradientColor=#7ea6e0;" vertex="1" parent="1">
          <mxGeometry x="214" y="1375" width="240" height="35" as="geometry" />
        </mxCell>
        <mxCell id="G2IPlSxlMlCNfW8gDpsO-21" value="" style="curved=1;startArrow=none;endArrow=block;exitX=0.49334927705618054;exitY=1;entryX=0.502123903918576;entryY=0;rounded=0;fillColor=#dae8fc;strokeColor=#6c8ebf;gradientColor=#7ea6e0;" edge="1" parent="1" source="G2IPlSxlMlCNfW8gDpsO-1" target="G2IPlSxlMlCNfW8gDpsO-2">
          <mxGeometry relative="1" as="geometry">
            <Array as="points" />
          </mxGeometry>
        </mxCell>
        <mxCell id="G2IPlSxlMlCNfW8gDpsO-22" value="" style="curved=1;startArrow=none;endArrow=block;exitX=0.502123903918576;exitY=1;entryX=0.49891246039912385;entryY=0;rounded=0;fillColor=#dae8fc;strokeColor=#6c8ebf;gradientColor=#7ea6e0;" edge="1" parent="1" source="G2IPlSxlMlCNfW8gDpsO-2" target="G2IPlSxlMlCNfW8gDpsO-3">
          <mxGeometry relative="1" as="geometry">
            <Array as="points" />
          </mxGeometry>
        </mxCell>
        <mxCell id="G2IPlSxlMlCNfW8gDpsO-23" value="Conduct Literature Search" style="curved=1;startArrow=none;endArrow=block;exitX=0.5730040058399897;exitY=1;entryX=0.49923707397890765;entryY=0;rounded=0;fillColor=#dae8fc;strokeColor=#6c8ebf;gradientColor=#7ea6e0;" edge="1" parent="1" source="G2IPlSxlMlCNfW8gDpsO-3" target="G2IPlSxlMlCNfW8gDpsO-4">
          <mxGeometry relative="1" as="geometry">
            <Array as="points">
              <mxPoint x="458" y="260" />
            </Array>
          </mxGeometry>
        </mxCell>
        <mxCell id="G2IPlSxlMlCNfW8gDpsO-24" value="Screen and Select Studies" style="curved=1;startArrow=none;endArrow=block;exitX=0.23127182574642025;exitY=1;entryX=0.5015330044728405;entryY=0;rounded=0;fillColor=#dae8fc;strokeColor=#6c8ebf;gradientColor=#7ea6e0;" edge="1" parent="1" source="G2IPlSxlMlCNfW8gDpsO-3" target="G2IPlSxlMlCNfW8gDpsO-5">
          <mxGeometry relative="1" as="geometry">
            <Array as="points">
              <mxPoint x="132" y="260" />
            </Array>
          </mxGeometry>
        </mxCell>
        <mxCell id="G2IPlSxlMlCNfW8gDpsO-25" value="" style="curved=1;startArrow=none;endArrow=block;exitX=0.6205398875969305;exitY=1;entryX=0.5016431674151354;entryY=0;rounded=0;fillColor=#dae8fc;strokeColor=#6c8ebf;gradientColor=#7ea6e0;" edge="1" parent="1" source="G2IPlSxlMlCNfW8gDpsO-4" target="G2IPlSxlMlCNfW8gDpsO-6">
          <mxGeometry relative="1" as="geometry">
            <Array as="points">
              <mxPoint x="536" y="365" />
            </Array>
          </mxGeometry>
        </mxCell>
        <mxCell id="G2IPlSxlMlCNfW8gDpsO-26" value="" style="curved=1;startArrow=none;endArrow=block;exitX=0.2098200175683823;exitY=1;entryX=0.4971698005244417;entryY=0;rounded=0;fillColor=#dae8fc;strokeColor=#6c8ebf;gradientColor=#7ea6e0;" edge="1" parent="1" source="G2IPlSxlMlCNfW8gDpsO-4" target="G2IPlSxlMlCNfW8gDpsO-7">
          <mxGeometry relative="1" as="geometry">
            <Array as="points">
              <mxPoint x="273" y="365" />
            </Array>
          </mxGeometry>
        </mxCell>
        <mxCell id="G2IPlSxlMlCNfW8gDpsO-27" value="" style="curved=1;startArrow=none;endArrow=block;exitX=0.5016431674151354;exitY=1;entryX=0.49921049820749386;entryY=0;rounded=0;fillColor=#dae8fc;strokeColor=#6c8ebf;gradientColor=#7ea6e0;" edge="1" parent="1" source="G2IPlSxlMlCNfW8gDpsO-6" target="G2IPlSxlMlCNfW8gDpsO-8">
          <mxGeometry relative="1" as="geometry">
            <Array as="points" />
          </mxGeometry>
        </mxCell>
        <mxCell id="G2IPlSxlMlCNfW8gDpsO-28" value="" style="curved=1;startArrow=none;endArrow=block;exitX=0.49921049820749386;exitY=1;entryX=0.49960936109224957;entryY=0;rounded=0;fillColor=#dae8fc;strokeColor=#6c8ebf;gradientColor=#7ea6e0;" edge="1" parent="1" source="G2IPlSxlMlCNfW8gDpsO-8" target="G2IPlSxlMlCNfW8gDpsO-9">
          <mxGeometry relative="1" as="geometry">
            <Array as="points" />
          </mxGeometry>
        </mxCell>
        <mxCell id="G2IPlSxlMlCNfW8gDpsO-29" value="" style="curved=1;startArrow=none;endArrow=block;exitX=0.5015330044728405;exitY=1;entryX=0.4992222086588542;entryY=0;rounded=0;fillColor=#dae8fc;strokeColor=#6c8ebf;gradientColor=#7ea6e0;" edge="1" parent="1" source="G2IPlSxlMlCNfW8gDpsO-5" target="G2IPlSxlMlCNfW8gDpsO-10">
          <mxGeometry relative="1" as="geometry">
            <Array as="points" />
          </mxGeometry>
        </mxCell>
        <mxCell id="G2IPlSxlMlCNfW8gDpsO-30" value="" style="curved=1;startArrow=none;endArrow=block;exitX=0.4992222086588542;exitY=1;entryX=-0.002872503165042762;entryY=0.18596093371600417;rounded=0;fillColor=#dae8fc;strokeColor=#6c8ebf;gradientColor=#7ea6e0;" edge="1" parent="1" source="G2IPlSxlMlCNfW8gDpsO-10" target="G2IPlSxlMlCNfW8gDpsO-11">
          <mxGeometry relative="1" as="geometry">
            <Array as="points">
              <mxPoint x="132" y="630" />
            </Array>
          </mxGeometry>
        </mxCell>
        <mxCell id="G2IPlSxlMlCNfW8gDpsO-31" value="" style="curved=1;startArrow=none;endArrow=block;exitX=0.49960936109224957;exitY=1;entryX=0.9596664824800271;entryY=0;rounded=0;fillColor=#dae8fc;strokeColor=#6c8ebf;gradientColor=#7ea6e0;" edge="1" parent="1" source="G2IPlSxlMlCNfW8gDpsO-9" target="G2IPlSxlMlCNfW8gDpsO-11">
          <mxGeometry relative="1" as="geometry">
            <Array as="points">
              <mxPoint x="536" y="630" />
            </Array>
          </mxGeometry>
        </mxCell>
        <mxCell id="G2IPlSxlMlCNfW8gDpsO-32" value="Quality Assessment" style="curved=1;startArrow=none;endArrow=block;exitX=0.0471169731833718;exitY=1;entryX=0.5022151681441295;entryY=0;rounded=0;fillColor=#dae8fc;strokeColor=#6c8ebf;gradientColor=#7ea6e0;" edge="1" parent="1" source="G2IPlSxlMlCNfW8gDpsO-11" target="G2IPlSxlMlCNfW8gDpsO-12">
          <mxGeometry relative="1" as="geometry">
            <Array as="points">
              <mxPoint x="209" y="725" />
            </Array>
          </mxGeometry>
        </mxCell>
        <mxCell id="G2IPlSxlMlCNfW8gDpsO-33" value="" style="curved=1;startArrow=none;endArrow=block;exitX=0.5022151681441295;exitY=1;entryX=0.5014705738099683;entryY=0;rounded=0;fillColor=#dae8fc;strokeColor=#6c8ebf;gradientColor=#7ea6e0;" edge="1" parent="1" source="G2IPlSxlMlCNfW8gDpsO-12" target="G2IPlSxlMlCNfW8gDpsO-13">
          <mxGeometry relative="1" as="geometry">
            <Array as="points" />
          </mxGeometry>
        </mxCell>
        <mxCell id="G2IPlSxlMlCNfW8gDpsO-34" value="Yes" style="curved=1;startArrow=none;endArrow=block;exitX=0.4715511064235569;exitY=1;entryX=0.4998991681683448;entryY=0;rounded=0;fillColor=#dae8fc;strokeColor=#6c8ebf;gradientColor=#7ea6e0;" edge="1" parent="1" source="G2IPlSxlMlCNfW8gDpsO-13" target="G2IPlSxlMlCNfW8gDpsO-14">
          <mxGeometry relative="1" as="geometry">
            <Array as="points">
              <mxPoint x="188" y="915" />
            </Array>
          </mxGeometry>
        </mxCell>
        <mxCell id="G2IPlSxlMlCNfW8gDpsO-35" value="No" style="curved=1;startArrow=none;endArrow=block;exitX=0.6221463446523628;exitY=1;entryX=0.2876606670621343;entryY=0;rounded=0;fillColor=#dae8fc;strokeColor=#6c8ebf;gradientColor=#7ea6e0;" edge="1" parent="1" source="G2IPlSxlMlCNfW8gDpsO-13" target="G2IPlSxlMlCNfW8gDpsO-15">
          <mxGeometry relative="1" as="geometry">
            <Array as="points">
              <mxPoint x="296" y="915" />
            </Array>
          </mxGeometry>
        </mxCell>
        <mxCell id="G2IPlSxlMlCNfW8gDpsO-36" value="" style="curved=1;startArrow=none;endArrow=block;exitX=0.4998991681683448;exitY=1;entryX=0.49988633502613417;entryY=0;rounded=0;fillColor=#dae8fc;strokeColor=#6c8ebf;gradientColor=#7ea6e0;" edge="1" parent="1" source="G2IPlSxlMlCNfW8gDpsO-14" target="G2IPlSxlMlCNfW8gDpsO-16">
          <mxGeometry relative="1" as="geometry">
            <Array as="points" />
          </mxGeometry>
        </mxCell>
        <mxCell id="G2IPlSxlMlCNfW8gDpsO-37" value="" style="curved=1;startArrow=none;endArrow=block;exitX=0.49988633502613417;exitY=1;entryX=0.24723902528850497;entryY=0;rounded=0;fillColor=#dae8fc;strokeColor=#6c8ebf;gradientColor=#7ea6e0;" edge="1" parent="1" source="G2IPlSxlMlCNfW8gDpsO-16" target="G2IPlSxlMlCNfW8gDpsO-17">
          <mxGeometry relative="1" as="geometry">
            <Array as="points">
              <mxPoint x="188" y="1095" />
            </Array>
          </mxGeometry>
        </mxCell>
        <mxCell id="G2IPlSxlMlCNfW8gDpsO-38" value="" style="curved=1;startArrow=none;endArrow=block;exitX=0.4997548816584739;exitY=1;entryX=0.49620178118854963;entryY=0;rounded=0;fillColor=#dae8fc;strokeColor=#6c8ebf;gradientColor=#7ea6e0;" edge="1" parent="1" source="G2IPlSxlMlCNfW8gDpsO-17" target="G2IPlSxlMlCNfW8gDpsO-18">
          <mxGeometry relative="1" as="geometry">
            <Array as="points" />
          </mxGeometry>
        </mxCell>
        <mxCell id="G2IPlSxlMlCNfW8gDpsO-39" value="" style="curved=1;startArrow=none;endArrow=block;exitX=0.49620178118854963;exitY=1;entryX=0.49732852552496076;entryY=0;rounded=0;fillColor=#dae8fc;strokeColor=#6c8ebf;gradientColor=#7ea6e0;" edge="1" parent="1" source="G2IPlSxlMlCNfW8gDpsO-18" target="G2IPlSxlMlCNfW8gDpsO-19">
          <mxGeometry relative="1" as="geometry">
            <Array as="points" />
          </mxGeometry>
        </mxCell>
        <mxCell id="G2IPlSxlMlCNfW8gDpsO-40" value="" style="curved=1;startArrow=none;endArrow=block;exitX=0.49732852552496076;exitY=1;entryX=0.49975692431131996;entryY=0;rounded=0;fillColor=#dae8fc;strokeColor=#6c8ebf;gradientColor=#7ea6e0;" edge="1" parent="1" source="G2IPlSxlMlCNfW8gDpsO-19" target="G2IPlSxlMlCNfW8gDpsO-20">
          <mxGeometry relative="1" as="geometry">
            <Array as="points" />
          </mxGeometry>
        </mxCell>
        <mxCell id="G2IPlSxlMlCNfW8gDpsO-41" value="" style="curved=1;startArrow=none;endArrow=block;exitX=0.6033401857066091;exitY=0;entryX=0.5540719369445186;entryY=1;rounded=0;fillColor=#dae8fc;strokeColor=#6c8ebf;gradientColor=#7ea6e0;" edge="1" parent="1" source="G2IPlSxlMlCNfW8gDpsO-15" target="G2IPlSxlMlCNfW8gDpsO-11">
          <mxGeometry relative="1" as="geometry">
            <Array as="points">
              <mxPoint x="410" y="915" />
              <mxPoint x="410" y="725" />
            </Array>
          </mxGeometry>
        </mxCell>
        <mxCell id="G2IPlSxlMlCNfW8gDpsO-42" value="" style="curved=1;startArrow=none;endArrow=block;exitX=0.6996527440620192;exitY=1;entryX=0.7312643972294083;entryY=0;rounded=0;fillColor=#dae8fc;strokeColor=#6c8ebf;gradientColor=#7ea6e0;" edge="1" parent="1" source="G2IPlSxlMlCNfW8gDpsO-11" target="G2IPlSxlMlCNfW8gDpsO-17">
          <mxGeometry relative="1" as="geometry">
            <Array as="points">
              <mxPoint x="468" y="725" />
              <mxPoint x="468" y="1095" />
            </Array>
          </mxGeometry>
        </mxCell>
      </root>
    </mxGraphModel>
  </diagram>
</mxfile>
